<svg width="22" height="21" viewBox="0 0 22 21" fill="none" xmlns="http://www.w3.org/2000/svg">
<path id="icon" fill-rule="evenodd" clip-rule="evenodd" d="M11 21C16.799 21 21.5 16.299 21.5 10.5C21.5 4.70101 16.799 0 11 0C5.20101 0 0.5 4.70101 0.5 10.5C0.5 11.7239 0.70939 12.8988 1.0943 13.991C2.61381 9.75267 7.98279 7.35114 12.5634 5.30226C14.218 4.56215 15.7697 3.86806 17 3.15002C14.3689 6.86774 11.0079 8.94509 7.973 10.8209L7.97299 10.8209C5.5464 12.3207 3.3283 13.6917 1.85846 15.6692C1.98334 15.8896 2.11596 16.105 2.25594 16.3151C3.67649 14.5195 6.47655 13.1615 9.46994 11.7097L9.46994 11.7097C12.2243 10.3739 15.1424 8.95863 17.3 7.05005C15.6309 11.0891 11.853 12.9877 8.41909 14.7134C6.5077 15.674 4.70286 16.581 3.42757 17.7738C3.59429 17.9474 3.76692 18.1152 3.94514 18.2769C5.51122 16.9369 7.98332 16.3862 10.6038 15.8024L10.6038 15.8024C12.5581 15.367 14.5949 14.9132 16.4 14.1C13.4686 17.4743 10.374 18.0973 7.89341 18.5966C6.9053 18.7955 6.01463 18.9748 5.27056 19.3005C6.91812 20.3753 8.88611 21 11 21Z" fill="#0366D6"/>
</svg>
