<svg width="38" height="38" viewBox="0 0 38 38" fill="none" xmlns="http://www.w3.org/2000/svg">
<path id="icon" fill-rule="evenodd" clip-rule="evenodd" d="M19 38C29.4934 38 38 29.4934 38 19C38 8.50659 29.4934 0 19 0C8.50659 0 0 8.50659 0 19C0 21.2147 0.378911 23.3408 1.07544 25.3172C3.82496 17.6477 13.5403 13.302 21.829 9.59453C24.8231 8.25528 27.6311 6.9993 29.8573 5.7C25.0962 12.4273 19.0144 16.1863 13.5227 19.5806C9.13166 22.2946 5.1179 24.7754 2.4582 28.3539C2.68417 28.7526 2.92414 29.1424 3.17744 29.5225C5.74793 26.2733 10.8148 23.8159 16.2314 21.1889C21.2155 18.7717 26.4958 16.2108 30.4001 12.7571C27.3798 20.0659 20.5437 23.5015 14.3299 26.6242C10.8711 28.3624 7.6052 30.0037 5.29752 32.1622C5.59918 32.4761 5.91152 32.7798 6.23397 33.0724C9.06784 30.6477 13.5412 29.6511 18.2831 28.5947C21.8193 27.8069 25.5049 26.9858 28.7713 25.5143C23.4669 31.6202 17.867 32.7474 13.3784 33.6509C11.5904 34.0108 9.97876 34.3352 8.63234 34.9247C11.6137 36.8696 15.1748 38 19 38Z" fill="url(#paint0_linear_1_56)"/>
<defs>
<linearGradient id="paint0_linear_1_56" x1="19" y1="0" x2="38.9048" y2="38" gradientUnits="userSpaceOnUse">
<stop stop-color="#0366D6"/>
<stop offset="1" stop-color="#96C7FF"/>
</linearGradient>
</defs>
</svg>
