<svg width="21" height="22" viewBox="0 0 21 22" fill="none" xmlns="http://www.w3.org/2000/svg">
<path id="icon" fill-rule="evenodd" clip-rule="evenodd" d="M10.5 21.5C16.299 21.5 21 16.799 21 11C21 5.20101 16.299 0.5 10.5 0.5C4.70101 0.5 0 5.20101 0 11C0 12.2239 0.20939 13.3988 0.594299 14.491C2.11381 10.2527 7.48279 7.85114 12.0634 5.80226C13.718 5.06215 15.2697 4.36806 16.5 3.65002C13.8689 7.36774 10.5079 9.44509 7.473 11.3209L7.47299 11.3209C5.0464 12.8207 2.8283 14.1917 1.35846 16.1692C1.48334 16.3896 1.61596 16.605 1.75594 16.8151C3.17649 15.0195 5.97655 13.6615 8.96994 12.2097L8.96994 12.2097C11.7243 10.8739 14.6424 9.45863 16.8 7.55005C15.1309 11.5891 11.353 13.4877 7.91909 15.2134C6.0077 16.174 4.20286 17.081 2.92757 18.2738C3.09429 18.4474 3.26692 18.6152 3.44514 18.7769C5.01122 17.4369 7.48332 16.8862 10.1038 16.3024L10.1038 16.3024C12.0581 15.867 14.0949 15.4132 15.9 14.6C12.9686 17.9743 9.87395 18.5973 7.39341 19.0966C6.4053 19.2955 5.51463 19.4748 4.77056 19.8005C6.41812 20.8753 8.38611 21.5 10.5 21.5Z" fill="#959DA5"/>
</svg>
