<svg width="19" height="16" viewBox="0 0 19 16" fill="none" xmlns="http://www.w3.org/2000/svg">
<g id="inbox">
<path id="Vector" d="M15.5 16H3.5C3.13886 16 2.78127 15.9289 2.44762 15.7907C2.11398 15.6525 1.81082 15.4499 1.55546 15.1945C1.3001 14.9392 1.09753 14.636 0.959331 14.3024C0.821131 13.9687 0.75 13.6111 0.75 13.25V7.25C0.75 7.05109 0.829018 6.86032 0.96967 6.71967C1.11032 6.57902 1.30109 6.5 1.5 6.5C1.69891 6.5 1.88968 6.57902 2.03033 6.71967C2.17098 6.86032 2.25 7.05109 2.25 7.25V13.25C2.246 13.4167 2.27538 13.5824 2.3364 13.7376C2.39742 13.8927 2.48886 14.0341 2.60534 14.1533C2.72181 14.2726 2.86097 14.3674 3.01461 14.4321C3.16826 14.4967 3.33329 14.53 3.5 14.53H15.5C15.8315 14.53 16.1495 14.3983 16.3839 14.1639C16.6183 13.9295 16.75 13.6115 16.75 13.28V7.28C16.75 7.08109 16.829 6.89032 16.9697 6.74967C17.1103 6.60902 17.3011 6.53 17.5 6.53C17.6989 6.53 17.8897 6.60902 18.0303 6.74967C18.171 6.89032 18.25 7.08109 18.25 7.28V13.28C18.2421 14.0041 17.9489 14.6959 17.434 15.2052C16.9191 15.7144 16.2242 16 15.5 16Z" fill="#6A737D"/>
<path id="Vector_2" d="M9.50003 11.25C8.59261 11.2506 7.71594 10.9212 7.03338 10.3232C6.35081 9.72531 5.90892 8.89961 5.79003 8.00001H1.50003C1.36543 8.00101 1.23304 7.96577 1.11675 7.89799C1.00046 7.8302 0.904554 7.73236 0.839097 7.61475C0.77364 7.49713 0.741044 7.36406 0.744727 7.22951C0.74841 7.09495 0.788237 6.96387 0.86003 6.85001L4.59003 0.85001C4.74317 0.582165 4.96671 0.361353 5.23642 0.211515C5.50613 0.0616774 5.81171 -0.0114678 6.12003 1.04925e-05H12.88C13.2096 0.000920429 13.5321 0.0953869 13.81 0.272418C14.0879 0.449449 14.3099 0.701766 14.45 1.00001L18.14 6.94001C18.1906 7.051 18.2134 7.17265 18.2064 7.29443C18.1994 7.41621 18.1627 7.53444 18.0997 7.63886C18.0366 7.74329 17.9491 7.83076 17.8446 7.89369C17.7401 7.95662 17.6218 7.99312 17.5 8.00001H13.21C13.0911 8.89961 12.6492 9.72531 11.9667 10.3232C11.2841 10.9212 10.4075 11.2506 9.50003 11.25ZM2.85003 6.53001H6.50003C6.69894 6.53001 6.88971 6.60903 7.03036 6.74968C7.17101 6.89033 7.25003 7.0811 7.25003 7.28001V7.50001C7.25003 8.09675 7.48708 8.66904 7.90904 9.091C8.331 9.51296 8.90329 9.75001 9.50003 9.75001C10.0968 9.75001 10.6691 9.51296 11.091 9.091C11.513 8.66904 11.75 8.09675 11.75 7.50001V7.28001C11.75 7.0811 11.829 6.89033 11.9697 6.74968C12.1104 6.60903 12.3011 6.53001 12.5 6.53001H16.15L13.15 1.67001C13.07 1.53001 12.99 1.47001 12.89 1.47001H6.12003C6.07279 1.47118 6.02669 1.48473 5.98633 1.50929C5.94597 1.53386 5.91277 1.56859 5.89003 1.61001L2.85003 6.53001Z" fill="#6A737D"/>
</g>
</svg>
