<svg width="17" height="18" viewBox="0 0 17 18" fill="none" xmlns="http://www.w3.org/2000/svg">
<g id="lock">
<path id="Vector" d="M13.5 7.25H13.25V5C13.25 3.74022 12.7496 2.53204 11.8588 1.64124C10.968 0.750445 9.75978 0.25 8.5 0.25C7.24022 0.25 6.03204 0.750445 5.14124 1.64124C4.25045 2.53204 3.75 3.74022 3.75 5V7.25H3.5C2.77065 7.25 2.07118 7.53973 1.55546 8.05546C1.03973 8.57118 0.75 9.27065 0.75 10V15C0.75 15.7293 1.03973 16.4288 1.55546 16.9445C2.07118 17.4603 2.77065 17.75 3.5 17.75H13.5C14.2293 17.75 14.9288 17.4603 15.4445 16.9445C15.9603 16.4288 16.25 15.7293 16.25 15V10C16.25 9.27065 15.9603 8.57118 15.4445 8.05546C14.9288 7.53973 14.2293 7.25 13.5 7.25ZM5.25 5C5.25 4.13805 5.59241 3.3114 6.2019 2.7019C6.8114 2.09241 7.63805 1.75 8.5 1.75C9.36195 1.75 10.1886 2.09241 10.7981 2.7019C11.4076 3.3114 11.75 4.13805 11.75 5V7.25H5.25V5ZM14.75 15C14.75 15.3315 14.6183 15.6495 14.3839 15.8839C14.1495 16.1183 13.8315 16.25 13.5 16.25H3.5C3.16848 16.25 2.85054 16.1183 2.61612 15.8839C2.3817 15.6495 2.25 15.3315 2.25 15V10C2.25 9.66848 2.3817 9.35054 2.61612 9.11612C2.85054 8.8817 3.16848 8.75 3.5 8.75H13.5C13.8315 8.75 14.1495 8.8817 14.3839 9.11612C14.6183 9.35054 14.75 9.66848 14.75 10V15Z" fill="#6A737D"/>
</g>
</svg>
